<svg xmlns="http://www.w3.org/2000/svg" viewBox="0 0 50 50" style="fill:#f5f7fa;color:#f5f7fa;">
  <path d="M40.952,25.921c-0.935-1.365-2.22-2.443-3.833-3.218c0.994-0.703,1.808-1.516,2.43-2.43 c0.993-1.458,1.497-3.282,1.497-5.423c0-1.944-0.334-3.617-0.992-4.973c-0.668-1.377-1.626-2.498-2.845-3.331 c-1.181-0.809-2.608-1.396-4.244-1.747c-1.575-0.336-3.335-0.507-5.23-0.507H9.59c-0.552,0-1,0.448-1,1v38.555c0,0.553,0.448,1,1,1 h18.684c1.809,0,3.594-0.229,5.306-0.681c1.744-0.461,3.324-1.184,4.694-2.147c1.401-0.987,2.531-2.275,3.357-3.83 c0.83-1.562,1.251-3.419,1.251-5.519C42.882,30.067,42.232,27.797,40.952,25.921z M18.068,11.88h7.938 c0.756,0,1.485,0.063,2.188,0.188c0.701,0.127,1.322,0.352,1.863,0.676c0.539,0.324,0.971,0.775,1.295,1.35 c0.324,0.576,0.486,1.315,0.486,2.214c0,1.62-0.486,2.79-1.458,3.51c-0.972,0.721-2.214,1.08-3.726,1.08h-8.586V11.88z M32.891,34.669c-0.342,0.647-0.801,1.161-1.377,1.539s-1.242,0.647-1.998,0.81s-1.548,0.243-2.375,0.243h-9.073V26.677h9.234 c1.837,0,3.312,0.425,4.429,1.269c1.115,0.847,1.674,2.261,1.674,4.24C33.404,33.193,33.232,34.021,32.891,34.669z"></path>
</svg>