<svg xmlns="http://www.w3.org/2000/svg" viewBox="0 0 50 50" style="fill:#f5f7fa;color:#f5f7fa;">
  <path d="M 7.78125 5.96875 A 2.0002 2.0002 0 0 0 6.59375 9.40625 L 15.15625 18 L 11 18 A 2.0002 2.0002 0 1 0 11 22 L 20 22 L 22 22 L 22 20 L 22 11 A 2.0002 2.0002 0 0 0 19.96875 8.96875 A 2.0002 2.0002 0 0 0 18 11 L 18 15.15625 L 9.40625 6.59375 A 2.0002 2.0002 0 0 0 7.96875 5.96875 A 2.0002 2.0002 0 0 0 7.78125 5.96875 z M 41.96875 5.96875 A 2.0002 2.0002 0 0 0 40.59375 6.59375 L 32 15.15625 L 32 11 A 2.0002 2.0002 0 0 0 29.96875 8.96875 A 2.0002 2.0002 0 0 0 29.78125 8.96875 A 2.0002 2.0002 0 0 0 28 11 L 28 20 L 28 22 L 30 22 L 39 22 A 2.0002 2.0002 0 1 0 39 18 L 34.84375 18 L 43.40625 9.40625 A 2.0002 2.0002 0 0 0 41.96875 5.96875 z M 10.8125 28 A 2.0021961 2.0021961 0 1 0 11 32 L 15.15625 32 L 6.59375 40.59375 A 2.0002 2.0002 0 1 0 9.40625 43.40625 L 18 34.84375 L 18 39 A 2.0002 2.0002 0 1 0 22 39 L 22 30 L 22 28 L 20 28 L 11 28 A 2.0002 2.0002 0 0 0 10.8125 28 z M 28 28 L 28 30 L 28 39 A 2.0002 2.0002 0 1 0 32 39 L 32 34.84375 L 40.59375 43.40625 A 2.0002 2.0002 0 1 0 43.40625 40.59375 L 34.84375 32 L 39 32 A 2.0002 2.0002 0 1 0 39 28 L 30 28 L 28 28 z"></path>
</svg>