<svg xmlns="http://www.w3.org/2000/svg" viewBox="0 0 50 50" style="fill:#f5f7fa;color:#f5f7fa;">
  <path d="M 6 6 L 6 8 L 6 17 A 2.0002 2.0002 0 1 0 10 17 L 10 12.84375 L 18.59375 21.40625 A 2.0002 2.0002 0 1 0 21.40625 18.59375 L 12.84375 10 L 17 10 A 2.0002 2.0002 0 1 0 17 6 L 8 6 L 6 6 z M 32.8125 6 A 2.0021961 2.0021961 0 1 0 33 10 L 37.15625 10 L 28.59375 18.59375 A 2.0002 2.0002 0 1 0 31.40625 21.40625 L 40 12.84375 L 40 17 A 2.0002 2.0002 0 1 0 44 17 L 44 8 L 44 6 L 42 6 L 33 6 A 2.0002 2.0002 0 0 0 32.8125 6 z M 19.96875 27.96875 A 2.0002 2.0002 0 0 0 18.59375 28.59375 L 10 37.15625 L 10 33 A 2.0002 2.0002 0 0 0 7.96875 30.96875 A 2.0002 2.0002 0 0 0 7.78125 30.96875 A 2.0002 2.0002 0 0 0 6 33 L 6 42 L 6 44 L 8 44 L 17 44 A 2.0002 2.0002 0 1 0 17 40 L 12.84375 40 L 21.40625 31.40625 A 2.0002 2.0002 0 0 0 19.96875 27.96875 z M 29.78125 27.96875 A 2.0002 2.0002 0 0 0 28.59375 31.40625 L 37.15625 40 L 33 40 A 2.0002 2.0002 0 1 0 33 44 L 42 44 L 44 44 L 44 42 L 44 33 A 2.0002 2.0002 0 0 0 41.96875 30.96875 A 2.0002 2.0002 0 0 0 41.78125 30.96875 A 2.0002 2.0002 0 0 0 40 33 L 40 37.15625 L 31.40625 28.59375 A 2.0002 2.0002 0 0 0 29.96875 27.96875 A 2.0002 2.0002 0 0 0 29.78125 27.96875 z"></path>
</svg>