<svg xmlns="http://www.w3.org/2000/svg" viewBox="0 0 50 50" style="fill:#f5f7fa;color:#f5f7fa;">
  <path d="M 2 10 C 1.448 10 1 10.448 1 11 L 1 39 C 1 39.553 1.448 40 2 40 L 9 40 C 9.552 40 10 39.553 10 39 L 10 29 L 20 29 L 20 39 C 20 39.553 20.448 40 21 40 L 28 40 C 28.553 40 29 39.553 29 39 L 29 11 C 29 10.448 28.553 10 28 10 L 21 10 C 20.448 10 20 10.448 20 11 L 20 21 L 10 21 L 10 11 C 10 10.448 9.552 10 9 10 L 2 10 z M 41 10 C 40.802 10 40.6015 10.04625 40.4375 10.15625 L 32.4375 15.03125 C 32.1605 15.21725 32 15.542 32 15.875 L 32 22 C 32 22.369 32.20625 22.701 32.53125 22.875 C 32.85625 23.049 33.2555 23.04875 33.5625 22.84375 L 40 19.03125 L 40 39 C 40 39.553 40.447 40 41 40 L 48 40 C 48.553 40 49 39.553 49 39 L 49 11 C 49 10.448 48.553 10 48 10 L 41 10 z"></path>
</svg>