<svg xmlns="http://www.w3.org/2000/svg" viewBox="0 0 50 50" style="fill:#f5f7fa;color:#f5f7fa;">
  <path d="M 4 13 C 3.448 13 3 13.448 3 14 L 3 36 C 3 36.553 3.448 37 4 37 L 10 37 C 10.552 37 11 36.553 11 36 L 11 28 L 17 28 L 17 36 C 17 36.553 17.448 37 18 37 L 24 37 C 24.552 37 25 36.553 25 36 L 25 14 C 25 13.448 24.552 13 24 13 L 18 13 C 17.448 13 17 13.448 17 14 L 17 22 L 11 22 L 11 14 C 11 13.448 10.552 13 10 13 L 4 13 z M 38.03125 13 C 32.55125 13 29 16.105 29 21 C 29 21.552 29.447 22 30 22 L 34.96875 22 C 35.52175 22 35.96875 21.552 35.96875 21 L 35.96875 20.90625 C 35.96875 19.68925 36.5485 19.125 37.8125 19.125 C 39.0135 19.125 39.75 19.73 39.75 20.75 C 39.75 21.556 39.226 22.375 36.125 25.25 L 29.3125 31.625 C 29.1105 31.814 29 32.099 29 32.375 L 29 36 C 29 36.553 29.447 37 30 37 L 46 37 C 46.553 37 47 36.553 47 36 L 47 32 C 47 31.447 46.553 31 46 31 L 39.09375 31 L 41.46875 28.96875 C 45.49175 25.37575 47 23.03175 47 20.34375 C 47 16.01375 43.31825 13 38.03125 13 z"></path>
</svg>