<svg xmlns="http://www.w3.org/2000/svg" viewBox="0 0 50 50" style="fill:#f5f7fa;color:#f5f7fa;">
  <path d="M 7 15 C 6.448 15 6 15.448 6 16 L 6 34 C 6 34.553 6.448 35 7 35 L 11 35 C 11.552 35 12 34.553 12 34 L 12 28 L 18 28 L 18 34 C 18 34.553 18.448 35 19 35 L 23 35 C 23.552 35 24 34.553 24 34 L 24 16 C 24 15.448 23.552 15 23 15 L 19 15 C 18.448 15 18 15.448 18 16 L 18 22 L 12 22 L 12 16 C 12 15.448 11.552 15 11 15 L 7 15 z M 35.59375 15 C 29.39275 15 28.048 18.23875 28 20.96875 C 27.995 21.23675 28.09325 21.4965 28.28125 21.6875 C 28.46925 21.8785 28.731 22 29 22 L 33 22 C 33.538 22 33.982 21.57025 34 21.03125 C 34.017 20.57025 34.483 20 35.5 20 C 36.658 20 37.09375 21.114 37.09375 21.375 C 37.09375 22.15 36.45925 23 35.53125 23 L 34 23 C 33.447 23 33 23.448 33 24 L 33 26 C 33 26.553 33.447 27 34 27 L 35.53125 27 C 36.77225 27 37.34375 27.81975 37.34375 28.59375 C 37.34375 29.41475 36.62075 30 35.59375 30 C 34.50175 30 34.023 29.48375 34 28.96875 C 33.976 28.43575 33.534 28 33 28 L 28.625 28 C 28.351 28 28.09525 28.1145 27.90625 28.3125 C 27.71825 28.5095 27.612 28.75925 27.625 29.03125 C 27.75 31.74725 29.23125 35 35.53125 35 C 40.75425 35 44 32.69575 44 28.96875 C 44 26.94375 43.029 25.3175 41.375 24.4375 C 42.418 23.5275 43 22.1305 43 20.4375 C 43 17.0355 40.22275 15 35.59375 15 z"></path>
</svg>