<svg xmlns="http://www.w3.org/2000/svg" viewBox="0 0 50 50" style="fill:#f5f7fa;color:#f5f7fa;">
  <path d="M 39.59375 0.03125 C 36.82475 0.03125 34.205 1.13775 32.25 3.09375 C 31.728 3.61375 26.45175 8.891 26.09375 9.25 C 23.04775 12.295 22.29775 16.77525 23.84375 20.53125 L 27.125 17.28125 C 26.923 15.39425 27.52925 13.46975 28.90625 12.09375 C 29.26325 11.73575 34.56475 6.43125 35.09375 5.90625 C 36.29775 4.70225 37.89275 4.03125 39.59375 4.03125 C 41.29475 4.03125 42.88975 4.70225 44.09375 5.90625 C 45.29775 7.11025 45.96875 8.70425 45.96875 10.40625 C 45.96875 12.10725 45.29675 13.70225 44.09375 14.90625 L 37.90625 21.09375 C 36.70325 22.29675 35.10825 22.96875 33.40625 22.96875 C 33.17625 22.96875 32.94675 22.93125 32.71875 22.90625 L 29.46875 26.15625 C 30.70475 26.66625 32.02925 26.96875 33.40625 26.96875 C 36.17625 26.96875 38.793 25.86325 40.75 23.90625 L 46.90625 17.75 C 48.86425 15.793 49.9375 13.17425 49.9375 10.40625 C 49.9375 7.63625 48.86425 5.05175 46.90625 3.09375 C 44.94925 1.13675 42.36075 0.03125 39.59375 0.03125 z M 32.96875 14.96875 A 2.0002 2.0002 0 0 0 31.59375 15.59375 L 15.59375 31.59375 A 2.0002 2.0002 0 1 0 18.40625 34.40625 L 34.40625 18.40625 A 2.0002 2.0002 0 0 0 32.96875 14.96875 z M 16.53125 23.09375 C 13.76125 23.09375 11.17575 24.168 9.21875 26.125 L 3.03125 32.3125 C 1.07425 34.2685 0 36.857 0 39.625 C 0.002 42.395 1.07325 45.01175 3.03125 46.96875 C 4.98825 48.92575 7.607 50 10.375 50 C 13.144 50 15.7325 48.92475 17.6875 46.96875 C 18.2095 46.44775 23.517 41.14025 23.875 40.78125 C 26.918 37.73825 27.666 33.254 26.125 29.5 L 22.84375 32.78125 C 23.04275 34.66425 22.40525 36.59475 21.03125 37.96875 C 20.67425 38.32575 15.404 43.599 14.875 44.125 C 13.671 45.328 12.076 46 10.375 46 C 8.674 46 7.079 45.329 5.875 44.125 C 4.671 42.922 4 41.326 4 39.625 C 4 37.924 4.64075 36.328 5.84375 35.125 L 12.03125 28.9375 C 13.23425 27.7345 14.82925 27.09375 16.53125 27.09375 C 16.76625 27.09375 17.019 27.098 17.25 27.125 L 20.5 23.875 C 19.261 23.363 17.91125 23.09375 16.53125 23.09375 z"></path>
</svg>