<svg xmlns="http://www.w3.org/2000/svg" viewBox="0 0 50 50" style="fill:#f5f7fa;color:#f5f7fa;">
  <path d="M 0 4 L 0 5 L 0 45 L 0 46 L 1 46 L 49 46 L 50 46 L 50 45 L 50 5 L 50 4 L 49 4 L 1 4 L 0 4 z M 2 6 L 48 6 L 48 44 L 2 44 L 2 6 z M 4 8 L 4 30.6875 L 17.3125 18.28125 C 17.5075 18.09925 17.76825 17.971 18.03125 18 C 18.29825 18.01 18.57 18.1165 18.75 18.3125 L 29.03125 29.5625 L 33.28125 25.28125 C 33.67225 24.89025 34.32775 24.89025 34.71875 25.28125 L 46 36.59375 L 46 8 L 4 8 z M 35 15 C 36.657 15 38 16.343 38 18 C 38 19.657 36.657 21 35 21 C 33.343 21 32 19.657 32 18 C 32 16.343 33.343 15 35 15 z M 17.9375 20.40625 L 4 33.4375 L 4 42 L 46 42 L 46 39.40625 L 34 27.40625 L 26.40625 35 L 23.59375 35 L 27.625 30.96875 L 17.9375 20.40625 z"></path>
</svg>