<svg xmlns="http://www.w3.org/2000/svg" viewBox="0 0 50 50" style="fill:#f5f7fa;color:#f5f7fa;">
  <path d="M25.112,0C11.431,0,0.301,9.908,0.301,22.087c0,5.857,2.537,11.346,7.155,15.508c-0.224,5.116-4.298,8.104-6.284,9.56 c-0.384,0.281-0.696,0.513-0.906,0.694c-0.279,0.243-0.401,0.619-0.318,0.979s0.358,0.645,0.715,0.741 c1.06,0.285,2.223,0.43,3.456,0.43c5.646,0,12.349-3.088,16.267-6.234c1.576,0.271,3.164,0.409,4.727,0.409 c13.681,0,24.811-9.908,24.811-22.087S38.793,0,25.112,0z M23.499,22.951c0,1.019-0.13,2.033-0.385,3.029 c-0.255,0.996-0.637,1.924-1.147,2.779c-0.512,0.861-1.149,1.614-1.914,2.266c-0.764,0.646-1.682,1.109-2.749,1.387v-2.99 c0.603-0.188,1.115-0.521,1.532-1.008c0.416-0.487,0.764-1.053,1.045-1.704c0.277-0.651,0.473-1.314,0.589-1.982 c0.116-0.674,0.15-1.291,0.105-1.846h-2.922v-7.378h5.846V22.951z M34.213,22.951L34.213,22.951 c-0.001,1.019-0.128,2.033-0.383,3.029c-0.255,0.996-0.637,1.924-1.146,2.779c-0.513,0.861-1.149,1.614-1.914,2.266 c-0.768,0.646-1.683,1.109-2.75,1.387v-2.99c0.604-0.188,1.113-0.521,1.532-1.008c0.416-0.487,0.765-1.053,1.042-1.704 c0.28-0.651,0.477-1.314,0.592-1.982c0.116-0.674,0.15-1.291,0.105-1.846h-2.922v-7.378h5.844V22.951z"></path>
</svg>