<svg xmlns="http://www.w3.org/2000/svg" viewBox="0 0 50 50" style="fill:#f5f7fa;color:#f5f7fa;">
  <path d="M 10 6 C 9.448 6 9 6.448 9 7 L 9 28 C 9 36.822 16.178 44 25 44 C 33.822 44 41 36.822 41 28 L 41 7 C 41 6.448 40.553 6 40 6 L 36 6 C 35.447 6 35 6.448 35 7 L 35 28 C 35 33.514 30.514 38 25 38 C 19.486 38 15 33.514 15 28 L 15 7 C 15 6.448 14.552 6 14 6 L 10 6 z M 11 47 C 10.448 47 10 47.447 10 48 C 10 48.553 10.448 49 11 49 L 39 49 C 39.553 49 40 48.553 40 48 C 40 47.447 39.553 47 39 47 L 11 47 z"></path>
</svg>